<?xml version="1.0" standalone="no"?>
<!DOCTYPE svg PUBLIC "-//W3C//DTD SVG 20010904//EN"
 "http://www.w3.org/TR/2001/REC-SVG-20010904/DTD/svg10.dtd">
<svg version="1.0" xmlns="http://www.w3.org/2000/svg"
 width="256.000000pt" height="256.000000pt" viewBox="0 0 256.000000 256.000000"
 preserveAspectRatio="xMidYMid meet">
<metadata>
Created by potrace 1.11, written by Peter Selinger 2001-2013
</metadata>
<g transform="translate(0.000000,256.000000) scale(0.100000,-0.100000)"
fill="#000000" stroke="none">
<path d="M965 2149 c-4 -6 -9 -27 -10 -47 -2 -20 -4 -40 -4 -44 -2 -14 -24 -8
-45 11 -12 10 -31 22 -43 26 -20 5 -23 3 -23 -19 0 -13 4 -36 10 -50 11 -29 3
-59 -12 -50 -19 12 -76 21 -87 15 -7 -5 -1 -23 20 -55 28 -42 31 -60 11 -61
-4 -1 -24 -4 -45 -9 -49 -9 -46 -32 6 -60 42 -22 47 -40 15 -57 -32 -17 -57
-44 -50 -55 9 -11 28 -17 66 -18 37 -2 44 -21 18 -49 -27 -30 -36 -63 -19 -70
7 -3 30 1 52 9 44 15 58 10 50 -16 -11 -35 -13 -80 -4 -85 12 -8 51 14 67 36
17 25 39 14 40 -21 1 -36 20 -72 35 -67 7 2 21 22 32 45 19 41 45 56 45 28 0
-19 50 -77 60 -71 5 3 12 27 16 53 8 60 12 66 32 49 10 -8 32 -22 50 -31 l32
-17 0 33 c0 18 -6 45 -14 60 -12 23 -12 27 1 32 8 3 23 1 34 -4 15 -8 50 -9
77 -1 6 2 -28 58 -42 70 -27 23 -18 38 24 44 23 3 47 11 56 17 12 11 10 16
-18 36 -17 13 -38 24 -45 24 -17 0 -17 40 0 40 6 0 25 12 41 27 29 24 29 26
11 39 -10 8 -36 14 -57 14 -45 0 -46 7 -13 56 35 52 33 65 -11 59 -20 -2 -42
-9 -49 -15 -9 -7 -16 -6 -24 3 -6 8 -8 16 -6 19 8 7 14 81 9 90 -6 10 -43 -9
-67 -34 -22 -23 -42 -19 -43 9 -4 80 -36 95 -67 31 -22 -46 -38 -48 -55 -8
-16 35 -47 56 -57 39z"/>
<path d="M1662 1771 c-9 -20 -17 -37 -18 -39 -1 -2 -17 -6 -36 -9 -18 -2 -37
-9 -42 -14 -16 -15 -46 -10 -73 11 -14 11 -29 20 -32 20 -4 0 -26 -17 -49 -39
-43 -38 -43 -39 -29 -72 13 -32 12 -37 -17 -92 -24 -46 -37 -59 -61 -65 -16
-3 -33 -5 -37 -4 -4 1 -10 -15 -13 -36 -14 -78 -9 -96 27 -113 26 -13 34 -25
48 -77 16 -59 16 -63 -2 -93 -22 -35 -18 -51 20 -97 26 -30 29 -32 65 -21 34
9 43 7 91 -21 45 -25 55 -36 60 -66 8 -39 33 -54 92 -54 29 0 37 5 51 35 11
23 26 37 43 41 14 3 38 11 55 18 27 12 34 11 67 -10 l36 -23 39 30 c50 40 55
50 38 75 -15 24 -14 35 6 79 26 56 51 85 73 85 36 0 44 13 48 75 l3 59 -38 21
c-20 12 -34 24 -31 28 3 3 -2 29 -11 56 -16 50 -16 52 5 86 20 32 20 43 -2 70
-4 6 -16 21 -27 35 -17 23 -20 23 -58 11 -37 -12 -41 -11 -91 19 -41 26 -53
40 -58 66 -8 41 -15 46 -77 54 -48 7 -49 6 -65 -29z"/>
<path d="M492 1707 c-11 -12 -20 -31 -18 -42 4 -28 -50 -51 -73 -32 -17 15
-49 16 -68 4 -18 -11 -16 -67 2 -87 21 -23 4 -70 -24 -70 -26 0 -62 -46 -54
-68 9 -24 34 -41 60 -42 24 0 52 -58 33 -70 -18 -11 -20 -68 -3 -82 20 -16 64
-11 80 9 10 13 15 13 40 1 15 -7 28 -21 28 -30 0 -23 35 -58 55 -55 26 4 50
33 50 60 0 32 45 54 69 34 37 -33 92 -6 83 41 -2 15 -10 34 -16 42 -19 23 3
76 29 73 12 -2 28 8 39 24 17 24 18 29 5 52 -9 16 -25 27 -42 29 -36 4 -64 53
-42 72 20 17 19 64 -2 81 -19 16 -51 13 -75 -8 -14 -13 -20 -13 -47 1 -20 11
-28 21 -25 31 6 15 -31 54 -52 55 -6 0 -20 -10 -32 -23z"/>
<path d="M1039 1413 c-1 -5 -1 -11 -1 -14 1 -4 -15 -9 -34 -11 -24 -3 -38 1
-43 11 -12 21 -77 2 -73 -21 4 -23 -49 -63 -59 -46 -6 10 -15 6 -35 -14 -23
-22 -25 -30 -15 -42 17 -20 -12 -78 -34 -70 -9 4 -15 0 -15 -7 0 -8 -3 -24 -6
-36 -5 -16 -2 -23 8 -23 19 0 23 -66 4 -77 -21 -12 -9 -73 15 -73 27 0 55 -46
39 -65 -17 -21 34 -72 55 -55 18 15 76 -16 68 -36 -3 -8 6 -18 22 -24 37 -14
45 -13 45 8 0 14 7 18 35 17 18 -1 41 -8 50 -15 21 -17 70 3 61 26 -8 20 53
57 70 43 8 -7 18 -2 33 17 15 19 18 30 10 34 -19 12 11 82 33 77 10 -3 18 0
19 6 0 7 2 20 4 30 2 10 -3 21 -11 24 -20 7 -19 83 1 83 18 0 19 9 5 45 -7 17
-15 25 -24 22 -17 -7 -60 59 -45 68 14 9 11 23 -12 46 -17 17 -23 19 -30 8
-12 -20 -79 14 -79 40 0 22 -58 44 -61 24z"/>
<path d="M2088 1174 c-9 -9 -27 -17 -40 -18 -16 -1 -23 -7 -24 -23 -1 -13 -7
-29 -13 -37 -10 -12 -10 -20 0 -37 6 -13 12 -32 13 -44 1 -11 8 -20 17 -20 9
0 29 -7 43 -15 23 -12 29 -12 36 -1 4 8 18 14 31 15 18 1 25 8 27 26 2 14 10
30 18 37 9 6 15 14 15 18 0 4 -6 12 -15 18 -8 7 -16 23 -18 37 -2 18 -9 25
-26 26 -13 1 -28 9 -35 18 -11 15 -13 15 -29 0z"/>
<path d="M360 1141 c0 -25 -16 -36 -24 -16 -8 22 -36 18 -36 -5 0 -23 -18 -27
-26 -6 -10 25 -35 7 -28 -20 6 -24 -9 -34 -21 -14 -3 6 -13 10 -21 10 -12 0
-14 -7 -9 -31 7 -29 6 -30 -14 -19 -28 15 -44 5 -31 -20 15 -28 12 -33 -14
-26 -32 8 -39 -3 -21 -31 15 -22 14 -23 -9 -23 -31 0 -40 -14 -21 -30 21 -17
19 -30 -4 -30 -30 0 -34 -17 -9 -35 l23 -15 -22 -6 c-27 -7 -30 -29 -5 -44 16
-10 16 -10 -1 -20 -23 -15 -22 -40 3 -40 23 0 27 -18 5 -26 -25 -10 -17 -34
10 -34 25 0 25 -1 9 -25 -15 -22 -15 -25 -1 -31 9 -3 21 -3 27 1 14 9 13 -18
-2 -33 -18 -18 6 -40 26 -23 19 16 32 -4 16 -24 -17 -20 -3 -38 20 -25 27 14
32 12 25 -10 -10 -31 4 -44 25 -25 19 17 29 11 25 -17 -4 -21 24 -33 31 -13 9
22 22 18 26 -7 4 -29 25 -34 33 -9 8 27 23 27 27 -1 4 -29 25 -34 33 -9 8 26
22 27 30 2 4 -13 12 -18 21 -14 8 3 13 12 10 19 -9 22 10 25 29 4 22 -24 37
-17 31 16 -5 25 -4 25 19 10 32 -21 35 -20 35 9 0 27 9 32 27 14 17 -17 31 -3
25 26 -4 24 -3 25 23 15 26 -10 26 -9 20 21 -7 29 -5 31 14 26 24 -6 45 23 23
31 -24 8 -12 29 13 24 18 -3 25 0 25 12 0 9 -7 19 -15 22 -24 9 -17 24 10 24
28 0 35 27 10 36 -21 8 -19 21 5 27 26 7 26 37 0 37 -11 0 -20 4 -20 9 0 5 9
13 20 16 11 3 20 13 20 21 0 8 -9 14 -20 14 -25 0 -26 18 -2 36 14 11 15 15 3
23 -8 5 -20 7 -28 4 -17 -7 -17 11 1 27 22 18 9 38 -21 32 -23 -4 -24 -3 -14
16 18 33 14 45 -14 38 -23 -6 -24 -4 -19 24 7 31 0 36 -26 21 -20 -14 -32 -3
-20 19 14 27 -6 36 -31 14 -18 -17 -19 -16 -19 14 0 35 -10 41 -30 17 -12 -14
-35 -11 -26 4 3 4 0 13 -5 21 -8 13 -12 11 -28 -9 l-18 -24 -7 27 c-7 30 -36
35 -36 6 0 -11 -3 -20 -8 -20 -4 0 -13 9 -20 20 -16 25 -32 26 -32 1z"/>
<path d="M2205 970 c-7 -24 -23 -26 -31 -5 -8 21 -24 19 -24 -3 0 -28 -11 -34
-32 -15 -17 15 -18 15 -18 -12 0 -24 -3 -26 -26 -21 -22 6 -25 4 -22 -16 2
-17 -2 -23 -17 -24 -11 -1 -24 -2 -29 -3 -6 -1 -5 -6 2 -13 20 -20 15 -41 -8
-35 -19 5 -20 2 -14 -30 4 -22 3 -34 -3 -30 -5 3 -15 2 -23 -3 -12 -7 -12 -10
3 -16 22 -8 22 -30 0 -39 -17 -6 -17 -7 0 -19 9 -7 17 -18 17 -24 0 -6 -8 -15
-17 -21 -16 -8 -15 -11 9 -20 19 -7 26 -15 22 -26 -3 -8 -10 -15 -16 -15 -5 0
-6 -5 -3 -11 4 -6 13 -8 21 -5 18 7 28 -12 14 -29 -14 -16 1 -28 26 -18 14 5
16 2 12 -21 -5 -24 -3 -27 21 -24 20 2 26 -1 26 -16 0 -11 6 -21 13 -24 6 -2
12 1 12 7 0 6 7 11 15 11 8 0 15 -9 15 -20 0 -23 10 -26 29 -7 10 10 15 8 27
-7 14 -20 14 -20 29 0 14 18 16 18 26 2 14 -24 29 -23 29 2 0 11 7 20 15 20 8
0 15 -4 15 -10 0 -5 7 -10 15 -10 8 0 12 6 9 14 -8 20 14 30 31 16 15 -13 19
-8 16 21 -1 9 5 19 14 22 8 4 15 1 15 -5 0 -6 3 -8 8 -4 4 4 7 18 7 29 0 15 6
22 19 22 22 0 33 20 17 30 -18 10 -12 25 9 25 21 0 27 15 10 25 -18 11 -11 32
13 39 l22 6 -24 16 -24 17 24 18 24 19 -22 6 c-23 6 -33 34 -13 34 6 0 10 7
10 15 0 8 -6 12 -14 9 -18 -7 -31 15 -17 29 18 18 13 29 -11 25 -20 -3 -23 1
-20 24 2 24 -1 28 -20 25 -14 -1 -24 4 -24 13 -1 8 -2 19 -3 23 0 4 -10 3 -21
-3 -17 -9 -20 -7 -26 15 -6 25 -7 25 -26 9 -18 -17 -19 -17 -25 4 -6 25 -21
29 -29 8 -7 -18 -34 -9 -34 10 0 21 -18 17 -25 -6z"/>
<path d="M1275 953 c-12 -11 -15 -26 -12 -50 8 -45 -26 -86 -60 -70 -17 7 -28
6 -48 -7 -33 -22 -33 -60 2 -92 34 -31 38 -81 6 -88 -21 -6 -43 -51 -36 -74 8
-22 57 -41 76 -30 24 13 69 -32 55 -56 -13 -23 2 -66 27 -78 27 -12 61 3 70
31 4 14 15 19 40 19 20 0 35 -5 35 -11 0 -23 16 -35 51 -42 33 -6 37 -4 48 23
7 17 10 40 6 52 -10 32 25 62 64 54 23 -5 35 -1 54 18 13 13 30 22 37 20 9 -3
5 -11 -11 -23 l-24 -19 23 -6 c22 -6 31 -24 12 -24 -5 0 -10 -7 -10 -16 0 -12
6 -15 21 -11 18 5 20 2 15 -19 -6 -24 7 -33 19 -14 4 6 11 8 16 4 5 -3 7 -9 5
-13 -3 -4 -1 -13 4 -21 8 -13 12 -12 24 5 16 20 16 20 22 -2 8 -28 20 -29 27
-3 5 20 27 28 27 10 0 -5 5 -10 10 -10 6 0 10 11 10 25 0 22 3 24 19 15 28
-15 33 -13 21 9 -14 27 -13 31 10 31 24 0 25 8 4 31 -14 16 -14 18 5 24 27 8
27 21 -1 29 -18 4 -20 8 -10 18 18 18 15 28 -9 28 -18 0 -20 4 -15 25 6 24 -7
35 -19 15 -10 -16 -28 -11 -21 6 10 26 -4 37 -25 18 -17 -15 -19 -15 -25 0 -9
22 -21 20 -27 -5 -6 -21 -6 -21 -24 -3 -17 17 -18 17 -21 -8 -3 -21 -7 -24
-29 -20 -23 4 -24 3 -14 -16 15 -28 14 -29 -14 -29 -14 0 -25 5 -25 12 0 6
-10 17 -23 22 -30 14 -31 70 -1 86 26 14 34 27 34 58 0 31 -37 54 -73 45 -34
-8 -72 36 -57 64 12 22 -4 66 -26 74 -22 9 -65 -12 -71 -34 -4 -15 -14 -20
-39 -20 -19 0 -34 5 -34 10 0 17 -39 50 -59 50 -11 0 -27 -8 -36 -17z"/>
<path d="M1759 929 c-9 -9 -20 -15 -23 -11 -5 5 -8 -6 -5 -24 0 -4 -5 -10 -11
-14 -16 -10 -20 -62 -6 -79 9 -12 8 -13 -4 -6 -13 8 -13 7 0 -10 27 -34 50
-55 60 -55 6 0 10 -4 10 -9 0 -8 29 -7 71 1 43 9 77 64 75 118 -2 40 -31 90
-53 90 -8 0 -12 4 -9 8 2 4 -16 8 -41 8 -31 1 -52 -5 -64 -17z"/>
<path d="M940 762 c0 -14 -36 -22 -47 -11 -14 14 -37 2 -48 -24 -6 -12 -17
-21 -27 -19 -17 3 -34 -30 -24 -47 3 -4 -3 -19 -14 -31 -23 -26 -25 -36 -9
-46 6 -3 8 -20 5 -38 -3 -17 -1 -38 4 -46 5 -8 10 -11 10 -6 0 5 7 3 15 -4 9
-7 14 -19 11 -26 -7 -18 24 -49 34 -35 4 7 18 2 40 -14 31 -23 36 -24 46 -10
9 12 21 15 48 10 32 -6 36 -5 36 13 0 13 9 23 23 28 36 11 49 25 36 40 -8 9
-5 18 10 33 22 22 28 51 11 51 -5 0 -10 11 -10 25 0 14 4 25 9 25 5 0 7 9 4
21 -3 11 -11 18 -18 16 -13 -6 -38 30 -30 43 6 10 -13 24 -35 25 -43 4 -50 6
-47 17 1 6 -6 14 -15 16 -10 2 -18 -1 -18 -6z"/>
</g>
</svg>
